G04 DipTrace 3.0.0.2*
G04 BottomSilk.gbr*
%MOIN*%
G04 #@! TF.FileFunction,Legend,Bot*
G04 #@! TF.Part,Single*
%ADD10C,0.009843*%
%ADD27C,0.00772*%
%ADD28C,0.009264*%
%FSLAX26Y26*%
G04*
G70*
G90*
G75*
G01*
G04 BotSilk*
%LPD*%
X12498Y924973D2*
D10*
X112500D1*
Y325027D1*
X12498D1*
Y924973D1*
X12495Y1350012D2*
X112500D1*
Y1149988D1*
X12495D1*
Y1350012D1*
G36*
X525000Y1475000D2*
X675000D1*
Y225000D1*
X525000D1*
Y1475000D1*
G37*
G36*
X350000Y1775000D2*
X875000D1*
Y1575000D1*
X350000D1*
Y1775000D1*
G37*
X105287Y1015419D2*
D27*
X107664Y1020172D1*
X112472Y1024980D1*
X117225Y1027357D1*
X126787D1*
X131595Y1024980D1*
X136349Y1020172D1*
X138780Y1015419D1*
X141157Y1008234D1*
Y996240D1*
X138780Y989110D1*
X136349Y984302D1*
X131595Y979549D1*
X126787Y977117D1*
X117225D1*
X112472Y979549D1*
X107664Y984302D1*
X105287Y989110D1*
X56354Y1027357D2*
Y977117D1*
X89848Y1027357D1*
Y977117D1*
X40915Y1017740D2*
X36107Y1020172D1*
X28922Y1027302D1*
Y977117D1*
X142402Y1438661D2*
X120902D1*
X113717Y1441093D1*
X111285Y1443470D1*
X108908Y1448223D1*
Y1453032D1*
X111285Y1457785D1*
X113717Y1460217D1*
X120902Y1462593D1*
X142402D1*
Y1412353D1*
X125655Y1438661D2*
X108908Y1412353D1*
X67161Y1438661D2*
X69537Y1443470D1*
X76722Y1445846D1*
X83907D1*
X91093Y1443470D1*
X93469Y1438661D1*
X91093Y1433908D1*
X86284Y1431476D1*
X74346Y1429100D1*
X69537Y1426723D1*
X67161Y1421915D1*
Y1419538D1*
X69537Y1414785D1*
X76722Y1412353D1*
X83907D1*
X91093Y1414785D1*
X93469Y1419538D1*
X44537Y1462593D2*
Y1421915D1*
X42160Y1414785D1*
X37351Y1412353D1*
X32598D1*
X51722Y1445846D2*
X34975D1*
X445798Y1470113D2*
Y1448558D1*
X443422Y1441428D1*
X440990Y1438996D1*
X436237Y1436619D1*
X429052D1*
X424299Y1438996D1*
X421867Y1441428D1*
X419490Y1448558D1*
Y1470113D1*
X469730D1*
X419490Y1421180D2*
X469730D1*
X450607Y1405741D2*
Y1377056D1*
X445798D1*
X440990Y1379433D1*
X438613Y1381809D1*
X436237Y1386618D1*
Y1393803D1*
X438613Y1398556D1*
X443422Y1403364D1*
X450607Y1405741D1*
X455360D1*
X462545Y1403364D1*
X467298Y1398556D1*
X469730Y1393803D1*
Y1386618D1*
X467298Y1381809D1*
X462545Y1377056D1*
X436237Y1332932D2*
X469730D1*
X443422D2*
X438613Y1337685D1*
X436237Y1342494D1*
Y1349623D1*
X438613Y1354432D1*
X443422Y1359185D1*
X450607Y1361617D1*
X455360D1*
X462545Y1359185D1*
X467298Y1354432D1*
X469730Y1349623D1*
Y1342494D1*
X467298Y1337685D1*
X462545Y1332932D1*
X443422Y1291184D2*
X438613Y1293561D1*
X436237Y1300746D1*
Y1307931D1*
X438613Y1315116D1*
X443422Y1317493D1*
X448175Y1315116D1*
X450607Y1310308D1*
X452984Y1298369D1*
X455360Y1293561D1*
X460169Y1291184D1*
X462545D1*
X467298Y1293561D1*
X469730Y1300746D1*
Y1307931D1*
X467298Y1315116D1*
X462545Y1317493D1*
X450607Y1275745D2*
Y1247060D1*
X445798D1*
X440990Y1249437D1*
X438613Y1251813D1*
X436237Y1256622D1*
Y1263807D1*
X438613Y1268560D1*
X443422Y1273369D1*
X450607Y1275745D1*
X455360D1*
X462545Y1273369D1*
X467298Y1268560D1*
X469730Y1263807D1*
Y1256622D1*
X467298Y1251813D1*
X462545Y1247060D1*
X450607Y1183020D2*
Y1154335D1*
X445798D1*
X440990Y1156712D1*
X438613Y1159088D1*
X436237Y1163897D1*
Y1171082D1*
X438613Y1175835D1*
X443422Y1180643D1*
X450607Y1183020D1*
X455360D1*
X462545Y1180643D1*
X467298Y1175835D1*
X469730Y1171082D1*
Y1163897D1*
X467298Y1159088D1*
X462545Y1154335D1*
X436237Y1138896D2*
X469730D1*
X445798D2*
X438613Y1131711D1*
X436237Y1126902D1*
Y1119773D1*
X438613Y1114964D1*
X445798Y1112588D1*
X469730D1*
X445798D2*
X438613Y1105403D1*
X436237Y1100594D1*
Y1093464D1*
X438613Y1088656D1*
X445798Y1086224D1*
X469730D1*
X436237Y1042100D2*
X469730D1*
X443422D2*
X438613Y1046853D1*
X436237Y1051662D1*
Y1058791D1*
X438613Y1063600D1*
X443422Y1068353D1*
X450607Y1070785D1*
X455360D1*
X462545Y1068353D1*
X467298Y1063600D1*
X469730Y1058791D1*
Y1051662D1*
X467298Y1046853D1*
X462545Y1042100D1*
X419490Y1026661D2*
X421867Y1024284D1*
X419490Y1021852D1*
X417058Y1024284D1*
X419490Y1026661D1*
X436237Y1024284D2*
X469730D1*
X419490Y1006413D2*
X469730D1*
X419490Y942373D2*
X469730D1*
X419490Y926934D2*
X469730D1*
Y910187D1*
X467298Y903002D1*
X462545Y898193D1*
X457737Y895817D1*
X450607Y893440D1*
X438613D1*
X431428Y895817D1*
X426675Y898193D1*
X421867Y903002D1*
X419490Y910187D1*
Y926934D1*
X436237Y800715D2*
X469730D1*
X443422D2*
X438613Y805468D1*
X436237Y810277D1*
Y817406D1*
X438613Y822215D1*
X443422Y826968D1*
X450607Y829400D1*
X455360D1*
X462545Y826968D1*
X467298Y822215D1*
X469730Y817406D1*
Y810277D1*
X467298Y805468D1*
X462545Y800715D1*
X436237Y785276D2*
X469730D1*
X445798D2*
X438613Y778091D1*
X436237Y773282D1*
Y766153D1*
X438613Y761344D1*
X445798Y758968D1*
X469730D1*
X419490Y714843D2*
X469730D1*
X443422D2*
X438613Y719597D1*
X436237Y724405D1*
Y731590D1*
X438613Y736343D1*
X443422Y741152D1*
X450607Y743528D1*
X455360D1*
X462545Y741152D1*
X467298Y736343D1*
X469730Y731590D1*
Y724405D1*
X467298Y719597D1*
X462545Y714843D1*
X419490Y650803D2*
X469730D1*
X436237Y623426D2*
X438613Y628179D1*
X443422Y632987D1*
X450607Y635364D1*
X455360D1*
X462545Y632987D1*
X467298Y628179D1*
X469730Y623426D1*
Y616241D1*
X467298Y611432D1*
X462545Y606679D1*
X455360Y604247D1*
X450607D1*
X443422Y606679D1*
X438613Y611432D1*
X436237Y616241D1*
Y623426D1*
X443422Y560068D2*
X438613Y564876D1*
X436237Y569685D1*
Y576814D1*
X438613Y581623D1*
X443422Y586376D1*
X450607Y588808D1*
X455360D1*
X462545Y586376D1*
X467298Y581623D1*
X469730Y576814D1*
Y569685D1*
X467298Y564876D1*
X462545Y560068D1*
X436237Y515944D2*
X469730D1*
X443422D2*
X438613Y520697D1*
X436237Y525505D1*
Y532635D1*
X438613Y537444D1*
X443422Y542197D1*
X450607Y544629D1*
X455360D1*
X462545Y542197D1*
X467298Y537444D1*
X469730Y532635D1*
Y525505D1*
X467298Y520697D1*
X462545Y515944D1*
X419490Y493319D2*
X460169D1*
X467298Y490943D1*
X469730Y486134D1*
Y481381D1*
X436237Y500504D2*
Y483758D1*
X419490Y465942D2*
X421867Y463565D1*
X419490Y461133D1*
X417058Y463565D1*
X419490Y465942D1*
X436237Y463565D2*
X469730D1*
X436237Y433756D2*
X438613Y438509D1*
X443422Y443318D1*
X450607Y445694D1*
X455360D1*
X462545Y443318D1*
X467298Y438509D1*
X469730Y433756D1*
Y426571D1*
X467298Y421763D1*
X462545Y417009D1*
X455360Y414577D1*
X450607D1*
X443422Y417009D1*
X438613Y421763D1*
X436237Y426571D1*
Y433756D1*
Y399138D2*
X469730D1*
X445799D2*
X438613Y391953D1*
X436237Y387145D1*
Y380015D1*
X438613Y375207D1*
X445799Y372830D1*
X469730D1*
X419490Y301605D2*
X460169D1*
X467298Y299228D1*
X469730Y294420D1*
Y289666D1*
X436237Y308790D2*
Y292043D1*
Y262289D2*
X438613Y267042D1*
X443422Y271851D1*
X450607Y274227D1*
X455360D1*
X462545Y271851D1*
X467298Y267042D1*
X469730Y262289D1*
Y255104D1*
X467298Y250296D1*
X462545Y245542D1*
X455360Y243111D1*
X450607D1*
X443422Y245542D1*
X438613Y250296D1*
X436237Y255104D1*
Y262289D1*
X369657Y1415729D2*
D28*
X309369D1*
X369657Y1438677D1*
X309369Y1461625D1*
X369657D1*
X329465Y1362780D2*
X369657D1*
X338087D2*
X332317Y1368484D1*
X329465Y1374254D1*
Y1382810D1*
X332317Y1388580D1*
X338087Y1394284D1*
X346709Y1397202D1*
X352413D1*
X361035Y1394284D1*
X366739Y1388580D1*
X369657Y1382810D1*
Y1374254D1*
X366739Y1368484D1*
X361035Y1362780D1*
X329465Y1344253D2*
X369657D1*
X346709D2*
X338087Y1341335D1*
X332317Y1335631D1*
X329465Y1329861D1*
Y1321239D1*
X309369Y1302712D2*
X312221Y1299860D1*
X309369Y1296941D1*
X306451Y1299860D1*
X309369Y1302712D1*
X329465Y1299860D2*
X369657D1*
X329465Y1278414D2*
X369657D1*
X340939D2*
X332317Y1269792D1*
X329465Y1264022D1*
Y1255466D1*
X332317Y1249696D1*
X340939Y1246844D1*
X369657D1*
X346709Y1228317D2*
Y1193895D1*
X340939D1*
X335169Y1196747D1*
X332317Y1199599D1*
X329465Y1205369D1*
Y1213991D1*
X332317Y1219695D1*
X338087Y1225465D1*
X346709Y1228317D1*
X352413D1*
X361035Y1225465D1*
X366739Y1219695D1*
X369657Y1213991D1*
Y1205369D1*
X366739Y1199599D1*
X361035Y1193895D1*
X309369Y1117047D2*
X369657D1*
Y1082625D1*
X309369Y1064098D2*
X312221Y1061246D1*
X309369Y1058328D1*
X306451Y1061246D1*
X309369Y1064098D1*
X329465Y1061246D2*
X369657D1*
X309369Y1031179D2*
X358183D1*
X366739Y1028327D1*
X369657Y1022557D1*
Y1016853D1*
X329465Y1039801D2*
Y1019705D1*
X309369Y989704D2*
X358183D1*
X366739Y986852D1*
X369657Y981082D1*
Y975378D1*
X329465Y998326D2*
Y978230D1*
X346709Y956851D2*
Y922429D1*
X340939D1*
X335169Y925281D1*
X332317Y928133D1*
X329465Y933903D1*
Y942525D1*
X332317Y948229D1*
X338087Y953999D1*
X346709Y956851D1*
X352413D1*
X361035Y953999D1*
X366739Y948229D1*
X369657Y942525D1*
Y933903D1*
X366739Y928133D1*
X361035Y922429D1*
X329465Y903902D2*
X369657D1*
X346709D2*
X338087Y900984D1*
X332317Y895280D1*
X329465Y889510D1*
Y880888D1*
X338087Y804039D2*
Y778240D1*
X335169Y769618D1*
X332317Y766699D1*
X326613Y763847D1*
X320843D1*
X315139Y766699D1*
X312221Y769618D1*
X309369Y778240D1*
Y804040D1*
X369657Y804039D1*
X338087Y783943D2*
X369657Y763847D1*
X346709Y745320D2*
Y710899D1*
X340939D1*
X335169Y713750D1*
X332317Y716602D1*
X329465Y722372D1*
Y730995D1*
X332317Y736698D1*
X338087Y742468D1*
X346709Y745320D1*
X352413D1*
X361035Y742468D1*
X366739Y736698D1*
X369657Y730995D1*
Y722372D1*
X366739Y716602D1*
X361035Y710899D1*
X338087Y660801D2*
X332317Y663653D1*
X329465Y672275D1*
Y680897D1*
X332317Y689520D1*
X338087Y692371D1*
X343791Y689520D1*
X346709Y683749D1*
X349561Y669424D1*
X352413Y663653D1*
X358183Y660801D1*
X361035D1*
X366739Y663653D1*
X369657Y672275D1*
Y680897D1*
X366739Y689520D1*
X361035Y692371D1*
X346709Y642274D2*
Y607853D1*
X340939D1*
X335169Y610704D1*
X332317Y613556D1*
X329465Y619326D1*
Y627949D1*
X332317Y633652D1*
X338087Y639422D1*
X346709Y642274D1*
X352413D1*
X361035Y639422D1*
X366739Y633652D1*
X369657Y627949D1*
Y619326D1*
X366739Y613556D1*
X361035Y607853D1*
X329465Y554904D2*
X369657D1*
X338087D2*
X332317Y560607D1*
X329465Y566378D1*
Y574933D1*
X332317Y580703D1*
X338087Y586407D1*
X346709Y589325D1*
X352413D1*
X361035Y586407D1*
X366739Y580703D1*
X369657Y574933D1*
Y566378D1*
X366739Y560607D1*
X361035Y554904D1*
X329465Y536376D2*
X369657D1*
X346709D2*
X338087Y533458D1*
X332317Y527754D1*
X329465Y521984D1*
Y513362D1*
X338087Y460347D2*
X332317Y466117D1*
X329465Y471887D1*
Y480443D1*
X332317Y486213D1*
X338087Y491917D1*
X346709Y494835D1*
X352413D1*
X361035Y491917D1*
X366739Y486213D1*
X369657Y480443D1*
Y471887D1*
X366739Y466117D1*
X361035Y460347D1*
X309369Y441820D2*
X369657D1*
X340939D2*
X332317Y433198D1*
X329465Y427428D1*
Y418806D1*
X332317Y413102D1*
X340939Y410250D1*
X369657D1*
X811919Y1884281D2*
Y1823993D1*
X791823D1*
X783201Y1826911D1*
X777431Y1832615D1*
X774579Y1838385D1*
X771727Y1846941D1*
Y1861333D1*
X774579Y1869955D1*
X777431Y1875659D1*
X783201Y1881429D1*
X791823Y1884281D1*
X811919D1*
X753200Y1846941D2*
X718778D1*
Y1852711D1*
X721630Y1858481D1*
X724482Y1861333D1*
X730252Y1864185D1*
X738874D1*
X744578Y1861333D1*
X750348Y1855563D1*
X753200Y1846941D1*
Y1841237D1*
X750348Y1832615D1*
X744578Y1826911D1*
X738874Y1823993D1*
X730252D1*
X724482Y1826911D1*
X718778Y1832615D1*
X700251Y1864185D2*
X683007Y1823993D1*
X665829Y1864185D1*
X647302Y1884281D2*
X644450Y1881429D1*
X641532Y1884281D1*
X644450Y1887199D1*
X647302Y1884281D1*
X644450Y1864185D2*
Y1823993D1*
X588517Y1855563D2*
X594287Y1861333D1*
X600057Y1864185D1*
X608613D1*
X614383Y1861333D1*
X620087Y1855563D1*
X623005Y1846941D1*
Y1841237D1*
X620087Y1832615D1*
X614383Y1826911D1*
X608613Y1823993D1*
X600057D1*
X594287Y1826911D1*
X588517Y1832615D1*
X569990Y1846941D2*
X535568D1*
Y1852711D1*
X538420Y1858481D1*
X541272Y1861333D1*
X547042Y1864185D1*
X555664D1*
X561368Y1861333D1*
X567138Y1855563D1*
X569990Y1846941D1*
Y1841237D1*
X567138Y1832615D1*
X561368Y1826911D1*
X555664Y1823993D1*
X547042D1*
X541272Y1826911D1*
X535568Y1832615D1*
X458720Y1884281D2*
Y1823993D1*
X440193Y1884281D2*
Y1823993D1*
X420097D1*
X411474Y1826911D1*
X405704Y1832615D1*
X402852Y1838385D1*
X400001Y1846941D1*
Y1861333D1*
X402852Y1869955D1*
X405704Y1875659D1*
X411474Y1881429D1*
X420097Y1884281D1*
X440193D1*
M02*
