G04 DipTrace 3.0.0.2*
G04 BottomAssy.gbr*
%MOIN*%
G04 #@! TF.FileFunction,Drawing,Bot*
G04 #@! TF.Part,Single*
%ADD10C,0.009843*%
%ADD29C,0.003088*%
%FSLAX26Y26*%
G04*
G70*
G90*
G75*
G01*
G04 BotAssy*
%LPD*%
X2661Y954134D2*
D10*
Y295866D1*
X2655Y1389370D2*
Y1110630D1*
X-35638Y724466D2*
D29*
X-15542D1*
Y715844D1*
X-16515Y712970D1*
X-17465Y712019D1*
X-19366Y711069D1*
X-22240D1*
X-24164Y712019D1*
X-25114Y712970D1*
X-26065Y715844D1*
X-27038Y712970D1*
X-27988Y712019D1*
X-29890Y711069D1*
X-31813D1*
X-33714Y712019D1*
X-34687Y712970D1*
X-35638Y715844D1*
Y724466D1*
X-26065D2*
Y715844D1*
X-35638Y699145D2*
X-34687Y701068D1*
X-32764Y702970D1*
X-30862Y703942D1*
X-27988Y704893D1*
X-23191D1*
X-20339Y703942D1*
X-18416Y702970D1*
X-16515Y701068D1*
X-15542Y699145D1*
Y695320D1*
X-16515Y693419D1*
X-18416Y691496D1*
X-20339Y690545D1*
X-23191Y689594D1*
X-27988D1*
X-30862Y690545D1*
X-32764Y691496D1*
X-34687Y693419D1*
X-35638Y695320D1*
Y699145D1*
X-15542Y668098D2*
X-35638Y675769D1*
X-15542Y683419D1*
X-22240Y680545D2*
Y670972D1*
X-26065Y661922D2*
Y653322D1*
X-27038Y650448D1*
X-27988Y649476D1*
X-29890Y648525D1*
X-31813D1*
X-33714Y649476D1*
X-34687Y650448D1*
X-35638Y653322D1*
Y661922D1*
X-15542D1*
X-26065Y655224D2*
X-15542Y648525D1*
X-35638Y642349D2*
X-15542D1*
Y635650D1*
X-16515Y632776D1*
X-18416Y630853D1*
X-20339Y629902D1*
X-23191Y628952D1*
X-27988D1*
X-30862Y629902D1*
X-32764Y630853D1*
X-34687Y632776D1*
X-35638Y635651D1*
Y642349D1*
Y590911D2*
Y603336D1*
X-15542D1*
Y590911D1*
X-26065Y603336D2*
Y595686D1*
X-35638Y584735D2*
X-15542D1*
Y578037D1*
X-16514Y575163D1*
X-18416Y573239D1*
X-20339Y572289D1*
X-23191Y571338D1*
X-27988D1*
X-30862Y572289D1*
X-32764Y573239D1*
X-34687Y575163D1*
X-35638Y578037D1*
Y584735D1*
X-30862Y550815D2*
X-32764Y551765D1*
X-34687Y553689D1*
X-35638Y555590D1*
Y559414D1*
X-34687Y561338D1*
X-32764Y563239D1*
X-30862Y564212D1*
X-27988Y565162D1*
X-23191D1*
X-20339Y564212D1*
X-18416Y563239D1*
X-16514Y561338D1*
X-15542Y559414D1*
Y555590D1*
X-16514Y553688D1*
X-18416Y551765D1*
X-20339Y550814D1*
X-23191Y550815D1*
Y555590D1*
X-35638Y532214D2*
Y544639D1*
X-15542D1*
Y532214D1*
X-26065Y544639D2*
Y536990D1*
X-30717Y1348467D2*
X-10621D1*
Y1339845D1*
X-11593Y1336971D1*
X-12544Y1336020D1*
X-14445Y1335069D1*
X-17319D1*
X-19243Y1336020D1*
X-20193Y1336971D1*
X-21144Y1339845D1*
X-22117Y1336971D1*
X-23067Y1336020D1*
X-24968Y1335069D1*
X-26892D1*
X-28793Y1336020D1*
X-29766Y1336971D1*
X-30717Y1339845D1*
Y1348467D1*
X-21144D2*
Y1339845D1*
X-30717Y1323146D2*
X-29766Y1325069D1*
X-27842Y1326970D1*
X-25941Y1327943D1*
X-23067Y1328894D1*
X-18270D1*
X-15418Y1327943D1*
X-13495Y1326970D1*
X-11593Y1325069D1*
X-10621Y1323146D1*
Y1319321D1*
X-11593Y1317420D1*
X-13495Y1315496D1*
X-15418Y1314546D1*
X-18270Y1313595D1*
X-23067D1*
X-25941Y1314546D1*
X-27842Y1315496D1*
X-29766Y1317420D1*
X-30717Y1319321D1*
Y1323146D1*
X-10621Y1292099D2*
X-30716Y1299770D1*
X-10621Y1307419D1*
X-17319Y1304545D2*
Y1294973D1*
X-21144Y1285923D2*
Y1277323D1*
X-22117Y1274449D1*
X-23067Y1273476D1*
X-24968Y1272525D1*
X-26892D1*
X-28793Y1273476D1*
X-29766Y1274449D1*
X-30716Y1277323D1*
Y1285923D1*
X-10621D1*
X-21144Y1279224D2*
X-10621Y1272525D1*
X-30716Y1266350D2*
X-10621D1*
Y1259651D1*
X-11593Y1256777D1*
X-13495Y1254854D1*
X-15418Y1253903D1*
X-18270Y1252952D1*
X-23067D1*
X-25941Y1253903D1*
X-27842Y1254854D1*
X-29766Y1256777D1*
X-30716Y1259651D1*
Y1266350D1*
Y1214912D2*
Y1227336D1*
X-10621D1*
Y1214912D1*
X-21144Y1227336D2*
Y1219687D1*
X-30716Y1208736D2*
X-10621D1*
X-10620Y1202037D1*
X-11593Y1199163D1*
X-13495Y1197240D1*
X-15418Y1196289D1*
X-18270Y1195339D1*
X-23067D1*
X-25941Y1196289D1*
X-27842Y1197240D1*
X-29766Y1199163D1*
X-30716Y1202037D1*
Y1208736D1*
X-25941Y1174815D2*
X-27842Y1175766D1*
X-29766Y1177689D1*
X-30716Y1179590D1*
Y1183415D1*
X-29766Y1185338D1*
X-27842Y1187240D1*
X-25941Y1188212D1*
X-23067Y1189163D1*
X-18270D1*
X-15418Y1188212D1*
X-13494Y1187240D1*
X-11593Y1185338D1*
X-10620Y1183415D1*
Y1179590D1*
X-11593Y1177689D1*
X-13494Y1175766D1*
X-15418Y1174815D1*
X-18270D1*
Y1179590D1*
X-30717Y1156215D2*
X-30716Y1168639D1*
X-10620D1*
X-10621Y1156215D1*
X-21144Y1168639D2*
Y1160990D1*
M02*
