G04 DipTrace 3.0.0.2*
G04 Bottom.gbr*
%MOIN*%
G04 #@! TF.FileFunction,Copper,L2,Bot*
G04 #@! TF.Part,Single*
G04 #@! TA.AperFunction,Conductor*
%ADD13C,0.02*%
G04 #@! TA.AperFunction,ComponentPad*
%ADD15R,0.070866X0.070866*%
%ADD16C,0.070866*%
G04 #@! TA.AperFunction,ViaPad*
%ADD17C,0.04*%
%FSLAX26Y26*%
G04*
G70*
G90*
G75*
G01*
G04 Bottom*
%LPD*%
X850000Y1300000D2*
D13*
X760433Y1210433D1*
Y1112433D1*
X792433Y1080433D1*
Y190000D1*
X825000Y157433D1*
Y100000D1*
X125000Y1600000D2*
X62500Y1537500D1*
Y1300000D1*
X250000Y1100000D2*
X171933D1*
Y1042000D1*
X250000Y1100000D2*
X555783D1*
X568217Y1112433D1*
X760433D1*
X62500Y1300000D2*
X171933Y1190567D1*
Y1178067D1*
X250000Y1100000D1*
X119933Y199433D2*
X285433D1*
X317433Y231433D1*
Y380004D1*
X119933Y284571D2*
Y517567D1*
X62500Y575000D1*
X359433Y457433D2*
Y189433D1*
X327433Y157433D1*
X277315D1*
X250000Y600000D2*
X493000D1*
X525000Y568000D1*
Y100000D1*
X567000Y189433D2*
Y868000D1*
X535000Y900000D1*
X250000D1*
X225000Y100000D2*
X167567Y157433D1*
X99571D1*
X67571Y189433D1*
Y241433D1*
X161933D1*
Y911933D1*
X250000Y1000000D1*
X62500Y1200000D2*
D3*
X119933Y1136000D2*
Y732433D1*
X62500Y675000D1*
Y1200000D2*
X84500D1*
X119933Y1164567D1*
Y1136000D1*
X925000Y100000D2*
Y1025000D1*
X850000Y1100000D1*
X907433Y1157433D1*
Y1425433D1*
X875433Y1457433D1*
X199571D1*
X167571Y1425433D1*
Y1342000D1*
D17*
X171933Y1042000D3*
X317433Y380004D3*
X119933Y199433D3*
Y284571D3*
X277315Y157433D3*
X359433Y457433D3*
X567000Y189433D3*
X119933Y1136000D3*
X167571Y1342000D3*
D15*
X62500Y875000D3*
D16*
Y775000D3*
Y675000D3*
Y575000D3*
Y475000D3*
Y375000D3*
D15*
Y1300000D3*
D16*
Y1200000D3*
X925000Y100000D3*
X825000D3*
X725000D3*
X625000D3*
X525000D3*
X425000D3*
X325000D3*
X225000D3*
X125000D3*
Y1600000D3*
X225000D3*
X735000Y955000D3*
Y1055000D3*
Y545000D3*
Y645000D3*
X850000Y1400000D3*
Y1300000D3*
Y1200000D3*
Y1100000D3*
Y1000000D3*
Y900000D3*
Y800000D3*
X850007Y699993D3*
X850000Y600000D3*
Y500000D3*
Y400000D3*
X850013Y299986D3*
X250000Y300000D3*
Y400000D3*
Y500000D3*
Y600000D3*
Y700000D3*
Y800000D3*
Y900000D3*
Y1000000D3*
Y1100000D3*
Y1200000D3*
Y1300000D3*
Y1400000D3*
M02*
