M48
INCH
T01C0.0191
T02C0.0354
%
T01
X+001719Y+010420
X+001199Y+011360
X+001676Y+013420
X+003594Y+004574
X+003174Y+003800
X+001199Y+002846
X+001199Y+001994
X+002773Y+001574
X+005670Y+001894
T02
X+000625Y+008750
X+000625Y+007750
X+000625Y+006750
X+000625Y+005750
X+000625Y+004750
X+000625Y+003750
X+002500Y+004000
X+002500Y+005000
X+002500Y+006000
X+002500Y+007000
X+002500Y+008000
X+002500Y+009000
X+002500Y+010000
X+002500Y+011000
X+002500Y+012000
X+002500Y+013000
X+002500Y+014000
X+002250Y+016000
X+001250Y+016000
X+000625Y+013000
X+000625Y+012000
X+007350Y+010550
X+007350Y+009550
X+008500Y+010000
X+008500Y+011000
X+008500Y+012000
X+008500Y+013000
X+008500Y+014000
X+008500Y+009000
X+008500Y+008000
X+008500Y+007000
X+008500Y+006000
X+008500Y+005000
X+008500Y+004000
X+008500Y+003000
X+008250Y+001000
X+009250Y+001000
X+007250Y+001000
X+006250Y+001000
X+005250Y+001000
X+004250Y+001000
X+003250Y+001000
X+002250Y+001000
X+001250Y+001000
X+002500Y+003000
X+007350Y+005450
X+007350Y+006450
T00
M30
